0
SECTION
2
HEADER
9
$INSUNITS
70
4
9
$ACADVER
1
AC1014
9
$HANDSEED
5
FFFF
0
ENDSEC
0
SECTION
2
TABLES
0
TABLE
2
VPORT
5
8
100
AcDbSymbolTable
0
ENDTAB
0
TABLE
2
LTYPE
5
5
100
AcDbSymbolTable
0
LTYPE
5
14
100
AcDbSymbolTableRecord
100
AcDbLinetypeTableRecord
2
BYBLOCK
70
0
0
LTYPE
5
15
100
AcDbSymbolTableRecord
100
AcDbLinetypeTableRecord
2
BYLAYER
70
0
0
ENDTAB
0
TABLE
2
LAYER
5
2
100
AcDbSymbolTable
70
2
0
LAYER
5
50
100
AcDbSymbolTableRecord
100
AcDbLayerTableRecord
2
0
70
0
6
CONTINUOUS
0
ENDTAB
0
TABLE
2
STYLE
5
3
100
AcDbSymbolTable
70
1
0
STYLE
5
11
100
AcDbSymbolTableRecord
100
AcDbTextStyleTableRecord
2
STANDARD
70
0
0
ENDTAB
0
TABLE
2
VIEW
5
6
100
AcDbSymbolTable
70
0
0
ENDTAB
0
TABLE
2
UCS
5
7
100
AcDbSymbolTable
70
0
0
ENDTAB
0
TABLE
2
APPID
5
9
100
AcDbSymbolTable
70
2
0
APPID
5
12
100
AcDbSymbolTableRecord
100
AcDbRegAppTableRecord
2
ACAD
70
0
0
ENDTAB
0
TABLE
2
DIMSTYLE
5
A
100
AcDbSymbolTable
70
1
0
ENDTAB
0
TABLE
2
BLOCK_RECORD
5
1
100
AcDbSymbolTable
70
1
0
BLOCK_RECORD
5
1F
100
AcDbSymbolTableRecord
100
AcDbBlockTableRecord
2
*MODEL_SPACE
0
BLOCK_RECORD
5
1B
100
AcDbSymbolTableRecord
100
AcDbBlockTableRecord
2
*PAPER_SPACE
0
ENDTAB
0
ENDSEC
0
SECTION
2
BLOCKS
0
BLOCK
5
20
100
AcDbEntity
100
AcDbBlockBegin
2
*MODEL_SPACE
0
ENDBLK
5
21
100
AcDbEntity
100
AcDbBlockEnd
0
BLOCK
5
1C
100
AcDbEntity
100
AcDbBlockBegin
2
*PAPER_SPACE
0
ENDBLK
5
1D
100
AcDbEntity
100
AcDbBlockEnd
0
ENDSEC
0
SECTION
2
ENTITIES
0
LINE
5
100
100
AcDbEntity
8
0
100
AcDbLine
10
20
20
50
30
0
11
100.5
21
50
31
0
0
LINE
5
101
100
AcDbEntity
8
0
100
AcDbLine
10
-20
20
50
30
0
11
-115
21
50
31
0
0
ARC
5
102
100
AcDbEntity
8
0
100
AcDbCircle
10
0
20
50
30
0
40
20
210
0
220
0
230
1
100
AcDbArc
50
-180
51
0
0
LINE
5
103
100
AcDbEntity
8
0
100
AcDbLine
10
20
20
-50
30
0
11
100.5
21
-50
31
0
0
LINE
5
104
100
AcDbEntity
8
0
100
AcDbLine
10
-20
20
-50
30
0
11
-115
21
-50
31
0
0
ARC
5
105
100
AcDbEntity
8
0
100
AcDbCircle
10
0
20
-50
30
0
40
20
210
0
220
0
230
1
100
AcDbArc
50
0
51
180
0
LINE
5
106
100
AcDbEntity
8
0
100
AcDbLine
10
-115
20
50
30
0
11
-115
21
40
31
0
0
LINE
5
107
100
AcDbEntity
8
0
100
AcDbLine
10
-115
20
-50
30
0
11
-115
21
-40
31
0
0
LINE
5
108
100
AcDbEntity
8
0
100
AcDbLine
10
-115
20
0
30
0
11
-100
21
0
31
0
0
SPLINE
5
109
100
AcDbEntity
8
0
100
AcDbSpline
70
4
71
5
72
21
73
15
74
0
42
0.000000001
43
0.0000000001
44
0.0000000001
40
0
40
0
40
0
40
0
40
0
40
0
40
0.10000000000000001
40
0.20000000000000001
40
0.30000000000000004
40
0.40000000000000002
40
0.5
40
0.59999999999999998
40
0.69999999999999996
40
0.79999999999999993
40
0.89999999999999991
40
1
40
1
40
1
40
1
40
1
40
1
41
1
41
1
41
1
41
1
41
1
41
1
41
1
41
1
41
1
41
1
41
1
41
1
41
1
41
1
41
1
10
-115
20
40
30
0
10
-113.86228586208946
20
38.400000000001917
30
0
10
-111.68621361977229
20
35.200000000005282
30
0
10
-108.72016422219207
20
30.400000000008855
30
0
10
-105.37143585671963
20
24.000000000010985
30
0
10
-102.26407915828813
20
16.000000000009923
30
0
10
-100.33166554091417
20
8.0000000000059011
30
0
10
-99.670079296308472
20
1.0810796702287462e-13
30
0
10
-100.33166554089711
20
-8.0000000000061284
30
0
10
-102.26407915825837
20
-16.000000000011124
30
0
10
-105.37143585668562
20
-24.000000000013134
30
0
10
-108.7201642221637
20
-30.400000000010966
30
0
10
-111.68621361975495
20
-35.20000000000659
30
0
10
-113.8622858620831
20
-38.400000000002407
30
0
10
-115
20
-40
30
0
0
SPLINE
5
110
100
AcDbEntity
8
0
100
AcDbSpline
70
4
71
5
72
16
73
10
74
0
42
0.000000001
43
0.0000000001
44
0.0000000001
40
0
40
0
40
0
40
0
40
0
40
0
40
0.20000000000000001
40
0.40000000000000002
40
0.60000000000000009
40
0.80000000000000004
40
1
40
1
40
1
40
1
40
1
40
1
41
1
41
1
41
1
41
1
41
1
41
1
41
1
41
1
41
1
41
1
10
100.5
20
50
30
0
10
100.5
20
47.974579169080052
30
0
10
100.90840587924923
20
43.937486408458469
30
0
10
102.74496368504251
20
37.923050842634531
30
0
10
107.15984980401105
20
29.969629254475816
30
0
10
113.84015466620485
20
20.063986302759872
30
0
10
118.25503977192442
20
12.102945190798387
30
0
10
120.09159614158207
20
6.0777100379453231
30
0
10
120.50000072933464
20
2.0309053535384241
30
0
10
120.5
20
0
30
0
0
SPLINE
5
111
100
AcDbEntity
8
0
100
AcDbSpline
70
4
71
5
72
16
73
10
74
0
42
0.000000001
43
0.0000000001
44
0.0000000001
40
0
40
0
40
0
40
0
40
0
40
0
40
0.20000000000000001
40
0.40000000000000002
40
0.60000000000000009
40
0.80000000000000004
40
1
40
1
40
1
40
1
40
1
40
1
41
1
41
1
41
1
41
1
41
1
41
1
41
1
41
1
41
1
41
1
10
100.5
20
-50
30
0
10
100.5
20
-47.969095079848003
30
0
10
100.90840567409118
20
-43.923062448614168
30
0
10
102.74496255742221
20
-37.901296119459644
30
0
10
107.15984655557017
20
-29.948228776510337
30
0
10
113.84014897421649
20
-20.051772276914058
30
0
10
118.25503398561251
20
-12.0987046951885
30
0
10
120.09159230507777
20
-6.0769380276027665
30
0
10
120.49999927066548
20
-2.0309050920225973
30
0
10
120.5
20
0
30
0
0
SPLINE
5
112
100
AcDbEntity
8
0
100
AcDbSpline
70
4
71
5
72
16
73
10
74
0
42
0.000000001
43
0.0000000001
44
0.0000000001
40
0
40
0
40
0
40
0
40
0
40
0
40
0.20000000000000001
40
0.40000000000000002
40
0.60000000000000009
40
0.80000000000000004
40
1
40
1
40
1
40
1
40
1
40
1
41
1
41
1
41
1
41
1
41
1
41
1
41
1
41
1
41
1
41
1
10
100.5
20
30
30
0
10
100.93567890570215
20
28.919026631720264
30
0
10
101.85521548561185
20
26.833721602041113
30
0
10
103.37887087943574
20
23.9353763460416
30
0
10
105.61102746833954
20
20.375052887319377
30
0
10
108.28226929069893
20
15.612848132422458
30
0
10
109.85861216309921
20
10.695267555312533
30
0
10
110.45274525478325
20
5.873204131286192
30
0
10
110.53637489386529
20
2.0579251513874235
30
0
10
110.5
20
0
30
0
0
SPLINE
5
113
100
AcDbEntity
8
0
100
AcDbSpline
70
4
71
5
72
16
73
10
74
0
42
0.000000001
43
0.0000000001
44
0.0000000001
40
0
40
0
40
0
40
0
40
0
40
0
40
0.20000000000000001
40
0.40000000000000002
40
0.60000000000000009
40
0.80000000000000004
40
1
40
1
40
1
40
1
40
1
40
1
41
1
41
1
41
1
41
1
41
1
41
1
41
1
41
1
41
1
41
1
10
100.5
20
-30
30
0
10
100.69727872471483
20
-28.816331373337277
30
0
10
101.22027147200463
20
-26.432707191869611
30
0
10
102.38965395053353
20
-22.808465053155725
30
0
10
104.55537282090739
20
-17.90148467395252
30
0
10
107.53167069353259
20
-11.752083588537692
30
0
10
109.45099311494923
20
-6.9236277106946638
30
0
10
110.27114380903959
20
-3.4106828404610301
30
0
10
110.48007709600523
20
-1.1271467999707778
30
0
10
110.5
20
0
30
0
0
LINE
5
114
100
AcDbEntity
8
0
100
AcDbLine
10
100.5
20
30
30
0
11
100.5
21
-30
31
0
0
ENDSEC
0
SECTION
2
OBJECTS
0
DICTIONARY
5
C
100
AcDbDictionary
3
ACAD_GROUP
350
D
3
ACAD_MLINESTYLE
350
17
0
DICTIONARY
5
D
100
AcDbDictionary
0
DICTIONARY
5
1A
330
C
100
AcDbDictionary
0
DICTIONARY
5
17
100
AcDbDictionary
0
ENDSEC
0
EOF
